<?xml version="1.0" standalone="no"?>
<!DOCTYPE svg PUBLIC "-//W3C//DTD SVG 20010904//EN"
 "http://www.w3.org/TR/2001/REC-SVG-20010904/DTD/svg10.dtd">
<svg version="1.0" xmlns="http://www.w3.org/2000/svg"
 width="2560.000000pt" height="2560.000000pt" viewBox="0 0 2560.000000 2560.000000"
 preserveAspectRatio="xMidYMid meet">
<metadata>
Created by potrace 1.14, written by Peter Selinger 2001-2017
</metadata>
<g transform="translate(0.000000,2560.000000) scale(0.100000,-0.100000)"
fill="#000000" stroke="none">
<path d="M0 18371 l0 -7229 82 -12 c165 -24 227 -27 383 -18 195 10 890 4
1110 -10 88 -6 212 -18 275 -27 97 -14 126 -15 187 -4 47 7 109 9 175 5 57 -4
150 -7 208 -7 58 0 152 -7 210 -15 58 -8 170 -19 250 -24 80 -6 213 -21 296
-35 113 -18 171 -23 235 -19 148 10 704 -35 1104 -89 305 -42 310 -42 359 -13
64 37 99 135 60 167 -12 10 -19 10 -32 1 -60 -42 -187 -96 -257 -108 -22 -3
-48 -13 -57 -22 -16 -13 -29 -12 -133 12 -95 23 -126 35 -182 73 -87 58 -119
95 -139 163 -26 88 -15 155 49 296 30 65 58 130 62 144 4 14 15 34 25 45 9 11
27 37 39 58 31 51 102 103 168 124 51 16 61 16 148 1 114 -19 171 -54 215
-131 25 -44 30 -63 30 -120 0 -60 -4 -75 -36 -130 -81 -140 -210 -193 -368
-152 -75 20 -93 14 -98 -31 -4 -31 1 -41 36 -75 65 -63 124 -72 237 -39 90 27
182 97 226 171 40 69 68 96 104 101 60 9 114 -45 160 -157 31 -74 33 -88 32
-185 0 -73 -5 -115 -15 -135 -47 -92 -27 -122 87 -136 44 -5 121 -16 170 -24
171 -28 480 -65 547 -65 56 0 69 3 78 19 17 33 11 85 -14 119 -69 95 -57 215
39 382 42 74 95 193 95 214 0 27 -25 46 -60 46 -30 0 -121 -95 -149 -155 -56
-121 -197 -402 -214 -428 -28 -42 -91 -70 -138 -62 -33 6 -43 13 -59 46 -11
21 -20 47 -20 57 0 18 82 204 115 262 8 14 26 50 40 80 14 30 30 63 35 73 6 9
14 25 20 35 5 9 31 64 56 122 60 134 87 176 123 195 38 19 68 19 106 -1 36
-20 67 -20 100 2 26 17 26 15 -13 76 -9 14 -35 56 -57 93 -22 37 -47 78 -55
90 -8 13 -32 52 -53 87 -21 34 -48 79 -60 99 -12 20 -98 162 -190 315 -93 154
-222 367 -287 474 -66 107 -142 233 -170 280 -28 47 -125 207 -215 355 -90
149 -170 280 -177 292 -7 12 -28 48 -47 80 -19 32 -47 72 -63 89 -16 17 -46
59 -66 93 -48 79 -370 612 -444 733 -31 51 -74 122 -95 157 -21 35 -45 74 -53
87 -8 14 -118 196 -245 405 -126 210 -240 398 -252 418 -22 35 -52 85 -134
221 -21 36 -52 85 -68 110 -15 25 -77 127 -137 228 -60 100 -116 193 -124 206
-8 13 -33 54 -55 91 -22 37 -47 78 -55 90 -8 13 -32 52 -53 87 -21 34 -58 95
-82 133 -25 39 -48 77 -52 85 -12 23 -272 460 -298 500 -54 83 -95 151 -95
155 0 3 -15 27 -33 53 -18 26 -36 54 -40 62 -4 8 -17 31 -29 51 -13 20 -38 63
-57 95 -19 33 -42 70 -52 84 -9 14 -72 118 -140 232 -68 115 -143 238 -166
275 -24 38 -47 77 -53 88 -6 11 -23 40 -39 65 -17 25 -30 60 -30 78 l-1 34
393 -7 c215 -3 471 -8 567 -10 96 -2 328 -6 515 -9 187 -3 399 -8 470 -11 72
-3 279 -8 460 -11 182 -2 420 -7 530 -9 110 -3 324 -7 475 -10 2047 -39 2256
-44 2300 -55 19 -5 183 -11 364 -15 181 -3 420 -7 530 -10 111 -3 554 -12 986
-20 432 -8 850 -17 930 -21 214 -9 203 -15 369 174 168 191 740 850 796 917
22 26 51 60 65 75 14 15 44 50 66 76 46 55 576 666 631 729 19 22 49 56 67 76
17 20 58 67 91 104 33 37 80 97 104 133 24 36 226 275 449 531 223 256 421
484 440 506 19 22 49 56 66 76 17 19 51 59 76 88 25 29 56 65 70 80 14 16 41
48 60 71 19 24 49 58 65 76 17 18 47 52 67 76 20 24 52 61 71 83 19 22 236
272 482 555 469 541 515 594 555 639 48 54 95 108 130 150 19 24 49 58 65 76
17 18 48 54 70 80 22 26 51 60 65 75 14 16 43 50 65 76 132 154 874 1006 908
1042 23 23 44 42 47 42 8 0 41 -86 65 -165 9 -33 23 -78 30 -100 7 -22 22 -74
34 -115 12 -41 26 -82 30 -90 5 -9 12 -35 16 -58 4 -23 11 -44 16 -48 5 -3 9
-14 9 -24 0 -11 6 -39 14 -62 8 -24 31 -97 51 -163 20 -66 40 -131 45 -145 5
-14 18 -59 30 -100 12 -41 28 -93 35 -115 23 -72 43 -138 75 -245 18 -58 38
-123 45 -145 14 -43 32 -106 60 -200 10 -33 24 -78 30 -100 7 -22 21 -67 30
-100 10 -33 24 -75 31 -93 8 -18 14 -41 14 -52 0 -11 6 -34 14 -52 7 -18 21
-60 31 -93 35 -122 48 -161 61 -193 8 -18 14 -41 14 -52 0 -11 6 -34 14 -52 7
-18 21 -58 29 -88 28 -98 78 -264 91 -305 7 -22 21 -67 31 -100 9 -33 23 -78
30 -100 7 -22 23 -74 35 -115 46 -155 52 -175 60 -195 5 -11 12 -36 16 -55 3
-19 10 -39 14 -45 4 -5 11 -29 15 -52 4 -24 10 -45 15 -48 5 -3 11 -24 15 -47
4 -23 11 -49 16 -58 4 -8 18 -49 30 -90 28 -99 48 -166 64 -215 7 -22 21 -67
30 -100 10 -33 24 -78 31 -100 7 -22 26 -86 43 -142 70 -232 110 -366 136
-448 7 -22 20 -65 29 -95 9 -30 30 -98 46 -150 16 -52 36 -117 44 -145 9 -27
22 -72 30 -100 8 -27 20 -79 26 -115 7 -36 24 -103 39 -150 15 -47 36 -112 45
-145 10 -33 24 -78 31 -100 6 -22 20 -67 30 -100 9 -33 23 -78 30 -100 7 -22
23 -74 35 -115 12 -41 25 -86 30 -100 5 -14 18 -59 30 -100 12 -41 35 -115 50
-165 16 -49 43 -137 60 -195 82 -275 147 -489 165 -545 7 -22 21 -67 30 -100
10 -33 24 -78 31 -100 7 -22 34 -110 59 -195 43 -145 59 -196 90 -295 7 -22
21 -67 30 -100 54 -189 89 -279 119 -298 22 -15 151 -71 301 -132 44 -18 145
-61 225 -95 80 -34 181 -77 225 -95 44 -18 141 -59 215 -90 192 -82 377 -160
510 -215 132 -55 329 -138 510 -215 69 -29 166 -69 215 -89 50 -21 128 -54
175 -76 47 -21 96 -41 110 -45 14 -4 73 -29 132 -56 59 -27 115 -49 125 -49
25 -1 121 -36 283 -105 74 -31 173 -73 220 -91 47 -19 105 -44 130 -56 25 -11
97 -42 160 -69 63 -26 176 -73 250 -104 74 -31 173 -73 220 -91 47 -19 112
-48 145 -63 33 -16 94 -41 135 -56 41 -16 84 -34 96 -42 11 -7 58 -27 103 -43
45 -17 107 -43 139 -59 31 -15 80 -36 107 -46 28 -10 88 -35 135 -56 47 -21
123 -54 170 -73 47 -19 126 -50 175 -70 50 -20 124 -52 165 -71 41 -19 113
-50 160 -69 47 -19 146 -60 220 -91 74 -31 173 -73 220 -92 47 -19 112 -47
145 -63 33 -16 98 -42 144 -59 46 -17 89 -35 95 -40 7 -6 55 -26 106 -46 52
-20 115 -46 140 -59 25 -13 78 -35 118 -49 l72 -27 0 5715 0 5715 -12800 0
-12800 0 0 -7229z"/>
<path d="M25525 12699 c-33 -23 -114 -81 -180 -128 -66 -47 -143 -102 -171
-121 -140 -95 -193 -132 -239 -165 -27 -19 -106 -73 -175 -120 -69 -47 -179
-123 -245 -170 -66 -48 -136 -97 -155 -110 -19 -13 -87 -60 -150 -104 -63 -44
-171 -119 -240 -166 -182 -126 -317 -220 -584 -407 -77 -54 -182 -127 -341
-236 -75 -51 -193 -133 -263 -182 -536 -376 -585 -409 -637 -435 -22 -11 -58
-32 -80 -48 -22 -15 -89 -61 -150 -102 -60 -42 -137 -95 -170 -118 -33 -23
-121 -85 -195 -136 -74 -52 -157 -110 -185 -130 -50 -35 -89 -62 -296 -204
-63 -43 -159 -110 -214 -148 -55 -39 -138 -97 -185 -129 -47 -32 -130 -90
-185 -129 -55 -39 -156 -109 -225 -157 -69 -47 -163 -112 -210 -145 -47 -33
-96 -67 -110 -77 -185 -125 -187 -127 -235 -227 -54 -114 -57 -138 -17 -129
15 4 36 13 47 20 28 20 86 17 113 -6 35 -29 62 -102 74 -200 9 -82 8 -99 -11
-178 -26 -100 -48 -141 -125 -232 -43 -51 -53 -68 -43 -77 14 -14 158 -66 432
-157 105 -35 214 -73 243 -85 53 -21 373 -104 447 -115 59 -9 187 10 232 35
72 40 113 92 113 143 0 37 -16 40 -65 12 -67 -37 -153 -59 -205 -53 -85 11
-151 37 -195 78 -55 51 -68 84 -63 162 4 68 19 98 103 212 24 33 57 78 72 100
15 22 38 52 51 67 16 18 25 40 26 65 1 37 0 38 -36 41 -20 2 -52 -4 -70 -14
-43 -21 -105 -81 -125 -119 -9 -16 -29 -46 -44 -65 -16 -19 -63 -80 -105 -135
-101 -131 -131 -163 -177 -186 -31 -16 -44 -18 -75 -9 -46 12 -56 19 -71 47
-22 43 -13 85 29 138 22 28 53 66 68 85 16 19 45 61 65 93 20 31 40 57 45 57
5 0 19 19 32 43 13 23 37 58 54 78 46 54 129 159 155 197 47 67 119 80 179 33
24 -20 57 -33 97 -40 105 -19 152 -40 189 -82 46 -54 62 -113 47 -177 -13 -52
-26 -75 -95 -167 -25 -33 -58 -78 -72 -100 -15 -22 -42 -57 -61 -78 -51 -57
-61 -84 -37 -102 51 -38 135 -3 246 103 97 93 119 106 162 98 62 -12 99 -89
112 -232 10 -127 -54 -304 -146 -402 -53 -57 -62 -85 -32 -101 10 -5 74 -26
143 -47 68 -20 160 -51 204 -69 44 -18 100 -36 125 -40 25 -4 104 -18 175 -32
273 -55 458 -11 496 116 19 64 4 71 -77 36 -47 -20 -89 -30 -143 -33 -70 -4
-84 -1 -156 29 -123 50 -186 126 -200 240 -8 65 5 103 56 165 19 23 50 63 69
89 19 26 50 66 67 89 18 22 45 58 60 80 l27 39 -37 31 c-43 36 -47 64 -17 113
31 52 57 63 139 60 81 -2 70 -9 151 98 78 105 124 156 157 176 31 19 38 20 81
9 95 -24 111 -68 57 -164 -19 -35 -42 -70 -50 -76 -8 -7 -33 -39 -55 -71 l-40
-58 44 -36 c65 -53 66 -91 2 -162 -22 -26 -58 -29 -135 -11 -61 14 -84 2 -132
-69 -18 -27 -70 -92 -116 -146 -72 -85 -83 -104 -83 -136 0 -68 54 -97 144
-77 63 15 98 38 186 122 73 71 102 85 145 73 69 -19 106 -134 99 -308 -4 -102
-6 -108 -47 -180 -47 -83 -152 -194 -206 -218 -70 -30 -177 -53 -251 -53 -158
0 -369 41 -594 116 -88 30 -188 61 -221 70 -33 9 -111 36 -173 60 -112 44
-177 64 -427 129 -71 19 -164 46 -205 60 -41 14 -133 41 -205 61 -71 19 -229
68 -350 109 -369 123 -415 128 -415 43 0 -24 -6 -108 -15 -188 -8 -80 -19
-206 -25 -280 -20 -254 -39 -475 -50 -600 -30 -336 -41 -467 -52 -600 -7 -80
-12 -185 -10 -235 1 -49 -4 -153 -12 -230 -8 -77 -17 -178 -21 -225 -3 -47
-12 -161 -21 -255 -8 -93 -21 -246 -29 -340 -8 -93 -20 -224 -25 -290 -6 -66
-17 -199 -25 -295 -7 -96 -18 -227 -24 -290 -21 -226 -32 -357 -41 -480 -5
-69 -16 -199 -24 -290 -28 -302 -38 -414 -46 -535 -5 -66 -16 -199 -25 -295
-24 -267 -44 -502 -55 -635 -12 -146 -25 -304 -45 -530 -23 -265 -35 -406 -50
-595 -8 -96 -17 -205 -21 -242 l-7 -68 3332 0 3331 0 0 6370 c0 3504 -3 6370
-7 6370 -5 0 -35 -19 -68 -41z"/>
<path d="M4532 11610 c-40 -25 -67 -81 -52 -110 12 -22 67 -35 105 -26 57 14
71 121 19 144 -33 15 -33 15 -72 -8z"/>
<path d="M0 5476 l0 -5476 9407 0 c5173 0 9404 2 9402 4 -2 2 -35 27 -74 55
-86 63 -158 118 -199 151 -17 14 -42 34 -56 43 -30 21 -78 57 -331 249 -180
136 -380 287 -985 743 -356 269 -754 569 -979 740 -450 340 -1262 953 -1555
1173 -113 85 -232 180 -266 211 -62 58 -93 82 -204 164 -96 70 -146 108 -195
147 -47 38 -199 153 -244 185 -16 11 -64 47 -107 80 -43 33 -88 67 -100 75
-12 8 -65 49 -119 90 -53 41 -115 87 -137 102 -23 15 -51 36 -62 47 -12 11
-36 30 -53 43 -79 57 -233 172 -283 213 -30 24 -72 54 -92 66 -21 13 -38 26
-38 30 0 4 -17 17 -37 30 -21 12 -49 32 -63 45 -25 23 -61 50 -135 101 -22 15
-51 38 -65 50 -26 23 -67 53 -135 100 -22 15 -44 33 -48 40 -4 7 -28 24 -52
39 -25 14 -45 29 -45 33 0 4 -15 15 -32 25 -18 11 -49 33 -70 50 -80 68 -100
76 -174 65 -37 -5 -72 -13 -78 -18 -6 -5 -29 -11 -51 -14 -22 -2 -71 -12 -110
-22 -38 -9 -88 -20 -110 -25 -42 -8 -112 -24 -180 -43 -22 -5 -58 -14 -80 -18
-22 -4 -69 -15 -105 -24 -36 -9 -83 -20 -105 -24 -22 -5 -60 -13 -85 -20 -49
-12 -228 -53 -330 -76 -58 -12 -109 -24 -350 -81 -36 -8 -83 -19 -105 -24 -22
-5 -98 -23 -170 -40 -71 -16 -159 -36 -195 -44 -58 -13 -168 -39 -345 -81 -33
-8 -91 -21 -130 -30 -38 -8 -86 -19 -105 -24 -19 -5 -75 -19 -125 -30 -49 -12
-115 -30 -145 -41 -30 -11 -95 -29 -145 -41 -49 -11 -99 -22 -110 -25 -45 -10
-504 -117 -555 -129 -56 -13 -321 -74 -1120 -260 -250 -58 -486 -113 -525
-121 -102 -23 -145 -33 -530 -123 -192 -44 -467 -108 -610 -141 -143 -33 -307
-71 -365 -85 -283 -66 -373 -87 -470 -109 -106 -25 -251 -58 -415 -96 -49 -11
-139 -32 -200 -46 -60 -13 -123 -29 -140 -33 -16 -5 -66 -17 -110 -26 -44 -10
-102 -24 -129 -31 -71 -20 -95 -18 -107 9 -12 27 -5 50 301 927 39 113 85 246
101 295 17 50 44 128 61 175 29 79 66 187 233 670 35 102 96 277 135 390 40
113 98 282 130 375 33 94 91 262 130 375 70 201 146 419 275 790 91 264 193
557 265 765 34 99 90 261 124 361 34 100 71 194 81 210 19 28 58 133 171 469
30 87 69 200 88 250 19 49 55 153 81 230 26 77 79 230 117 340 150 431 161
468 151 484 -7 11 -33 18 -86 22 -52 5 -84 13 -104 27 -22 16 -77 27 -238 51
-116 16 -253 33 -305 36 -52 3 -138 13 -190 21 -147 23 -280 20 -391 -8 -34
-8 -56 -8 -85 0 -22 6 -63 18 -92 26 -30 9 -113 18 -185 21 -73 4 -182 13
-243 21 -61 8 -178 19 -260 24 -82 5 -176 14 -209 20 -33 6 -145 15 -250 20
-104 5 -239 16 -300 24 -117 16 -249 30 -435 46 -63 6 -160 15 -215 20 -55 6
-152 15 -215 21 -366 33 -367 33 -470 19 -98 -13 -100 -13 -157 13 -72 32
-139 44 -313 57 -74 5 -191 16 -260 25 -183 22 -363 12 -495 -27 -55 -16 -112
-32 -128 -35 -38 -7 -75 20 -96 70 -20 47 -44 62 -115 72 l-46 7 0 -5476z"/>
<path d="M19657 8139 c-30 -25 -37 -37 -37 -67 0 -28 3 -33 12 -24 7 7 20 12
30 12 30 0 64 89 40 104 -5 3 -25 -9 -45 -25z"/>
</g>
</svg>
